# xmcd CD database file
#
# Track frame offsets:
#	150
#	22015
#	45480
#	61663
#	79245
#	99698
#	120800
#	141935
#	167660
#	190253
#	215368
#
# Disc length: 3162 seconds
#
# Revision: 0
# Processed by: cddbd v1.5.2PL0 Copyright (c) Steve Scherf et al.
# Submitted via: CDex 1.51
#
DISCID=8d0c580b
DTITLE=Varios - Salsa Festival Méxioc 93
DYEAR=1990
DGENRE=Salsa
TTITLE0=Amor traicionero
TTITLE1=Vivir sin ella
TTITLE2=Vuelve
TTITLE3=La infiel
TTITLE4=El último beso
TTITLE5=Amor casual
TTITLE6=Me amas y me dejas
TTITLE7=Amor mio no te vayas
TTITLE8=Por que no te vas
TTITLE9=Con el corazón en la mano
TTITLE10=No me acostumbro
EXTD=YEAR: 1990
EXTT0=
EXTT1=
EXTT2=
EXTT3=
EXTT4=
EXTT5=
EXTT6=
EXTT7=
EXTT8=
EXTT9=
EXTT10=
PLAYORDER=
